<mxfile host="app.diagrams.net" modified="2023-08-23T13:11:27.499Z" agent="Mozilla/5.0 (Windows NT 10.0; Win64; x64) AppleWebKit/537.36 (KHTML, like Gecko) Chrome/116.0.0.0 Safari/537.36 Edg/116.0.1938.54" etag="vg2mkeMc29brzLcQisOD" version="21.6.9" type="github">
  <diagram name="第 1 页" id="qlrIg5KmmpnUVGtU14Q3">
    <mxGraphModel dx="1192" dy="1148" grid="1" gridSize="10" guides="1" tooltips="1" connect="1" arrows="1" fold="1" page="1" pageScale="1" pageWidth="827" pageHeight="1169" math="0" shadow="0">
      <root>
        <mxCell id="0" />
        <mxCell id="1" parent="0" />
        <mxCell id="vfckbRow3GQZ2LQeMpIB-1" value="" style="rounded=0;whiteSpace=wrap;html=1;fontSize=22;fillColor=#fff2cc;align=center;strokeColor=none;" vertex="1" parent="1">
          <mxGeometry x="910" y="450" width="830" height="580" as="geometry" />
        </mxCell>
        <mxCell id="vfckbRow3GQZ2LQeMpIB-2" value="" style="endArrow=classic;html=1;rounded=0;fontSize=14;strokeWidth=2;" edge="1" parent="1">
          <mxGeometry width="50" height="50" relative="1" as="geometry">
            <mxPoint x="1453.9999999999998" y="700" as="sourcePoint" />
            <mxPoint x="1410" y="770" as="targetPoint" />
            <Array as="points">
              <mxPoint x="1454" y="720" />
              <mxPoint x="1410" y="720" />
            </Array>
          </mxGeometry>
        </mxCell>
        <mxCell id="vfckbRow3GQZ2LQeMpIB-3" value="" style="rounded=1;whiteSpace=wrap;html=1;shadow=1;strokeColor=default;fontSize=14;fillColor=#d5e8d4;" vertex="1" parent="1">
          <mxGeometry x="1330" y="920" width="160" height="90" as="geometry" />
        </mxCell>
        <mxCell id="vfckbRow3GQZ2LQeMpIB-4" value="" style="rounded=1;whiteSpace=wrap;html=1;shadow=1;strokeColor=default;fillColor=#dae8fc;" vertex="1" parent="1">
          <mxGeometry x="1070" y="890" width="260" height="90" as="geometry" />
        </mxCell>
        <mxCell id="vfckbRow3GQZ2LQeMpIB-5" value="&lt;font style=&quot;&quot;&gt;&lt;font style=&quot;font-size: 18px;&quot;&gt;Vector Load IQ&lt;/font&gt;&lt;br&gt;&lt;font style=&quot;font-size: 14px;&quot;&gt;32 entries&lt;/font&gt;&lt;/font&gt;" style="rounded=0;whiteSpace=wrap;html=1;fillColor=#ffe6cc;strokeColor=default;fontFamily=Helvetica;shadow=1;" vertex="1" parent="1">
          <mxGeometry x="1120" y="470" width="160" height="60" as="geometry" />
        </mxCell>
        <mxCell id="vfckbRow3GQZ2LQeMpIB-6" value="&lt;font style=&quot;&quot;&gt;&lt;font style=&quot;font-size: 18px;&quot;&gt;Vector Store IQ&lt;/font&gt;&lt;br&gt;&lt;font style=&quot;font-size: 14px;&quot;&gt;32 entries&lt;/font&gt;&lt;/font&gt;" style="rounded=0;whiteSpace=wrap;html=1;fillColor=#ffe6cc;strokeColor=default;fontFamily=Helvetica;shadow=1;" vertex="1" parent="1">
          <mxGeometry x="1330" y="470" width="160" height="60" as="geometry" />
        </mxCell>
        <mxCell id="vfckbRow3GQZ2LQeMpIB-7" value="&lt;b&gt;&lt;font style=&quot;font-size: 18px;&quot;&gt;Vec Load Queue&lt;/font&gt;&lt;/b&gt;&lt;br&gt;&lt;font style=&quot;font-size: 14px;&quot;&gt;32 entries&lt;/font&gt;" style="rounded=0;whiteSpace=wrap;html=1;fillColor=#FFB570;strokeColor=default;fontFamily=Helvetica;shadow=1;" vertex="1" parent="1">
          <mxGeometry x="1120" y="560" width="160" height="60" as="geometry" />
        </mxCell>
        <mxCell id="vfckbRow3GQZ2LQeMpIB-8" value="&lt;font style=&quot;font-size: 14px;&quot;&gt;Load Unit&lt;/font&gt;" style="rounded=0;whiteSpace=wrap;html=1;fillColor=#dae8fc;strokeColor=#000000;fontFamily=Helvetica;shadow=1;" vertex="1" parent="1">
          <mxGeometry x="1090" y="930" width="80" height="40" as="geometry" />
        </mxCell>
        <mxCell id="vfckbRow3GQZ2LQeMpIB-9" value="&lt;font style=&quot;font-size: 14px;&quot;&gt;Load Unit&lt;/font&gt;" style="rounded=0;whiteSpace=wrap;html=1;fillColor=#dae8fc;strokeColor=#000000;fontFamily=Helvetica;shadow=1;" vertex="1" parent="1">
          <mxGeometry x="1190" y="930" width="80" height="40" as="geometry" />
        </mxCell>
        <mxCell id="vfckbRow3GQZ2LQeMpIB-10" value="&lt;font style=&quot;font-size: 14px;&quot;&gt;Hybird Unit&lt;/font&gt;" style="rounded=0;whiteSpace=wrap;html=1;fillColor=#dae8fc;strokeColor=#000000;fontFamily=Helvetica;shadow=1;gradientColor=#D5E8D4;gradientDirection=east;" vertex="1" parent="1">
          <mxGeometry x="1290" y="930" width="80" height="40" as="geometry" />
        </mxCell>
        <mxCell id="vfckbRow3GQZ2LQeMpIB-11" value="&lt;b&gt;&lt;font style=&quot;font-size: 18px;&quot;&gt;Vec Store Queue&lt;/font&gt;&lt;/b&gt;&lt;br&gt;&lt;font style=&quot;font-size: 14px;&quot;&gt;32 entries&lt;/font&gt;" style="rounded=0;whiteSpace=wrap;html=1;fillColor=#FFB570;strokeColor=default;fontFamily=Helvetica;shadow=1;" vertex="1" parent="1">
          <mxGeometry x="1330" y="560" width="160" height="60" as="geometry" />
        </mxCell>
        <mxCell id="vfckbRow3GQZ2LQeMpIB-12" value="&lt;font style=&quot;font-size: 14px;&quot;&gt;Store Unit&lt;/font&gt;" style="rounded=0;whiteSpace=wrap;html=1;fillColor=#D5E8D4;strokeColor=#000000;fontFamily=Helvetica;shadow=1;" vertex="1" parent="1">
          <mxGeometry x="1390" y="930" width="80" height="40" as="geometry" />
        </mxCell>
        <mxCell id="vfckbRow3GQZ2LQeMpIB-13" value="&lt;font style=&quot;font-size: 14px;&quot;&gt;Address Gen Unit&lt;/font&gt;" style="rounded=0;whiteSpace=wrap;html=1;fillColor=#f8cecc;strokeColor=default;fontFamily=Helvetica;shadow=1;" vertex="1" parent="1">
          <mxGeometry x="1420" y="660" width="70" height="40" as="geometry" />
        </mxCell>
        <mxCell id="vfckbRow3GQZ2LQeMpIB-14" value="&lt;b&gt;&lt;font style=&quot;font-size: 18px;&quot;&gt;Load Flow Queue&lt;/font&gt;&lt;/b&gt;&lt;br&gt;&lt;font style=&quot;font-size: 14px;&quot;&gt;24 entries&lt;/font&gt;" style="rounded=0;whiteSpace=wrap;html=1;fillColor=#FFB570;strokeColor=default;fontFamily=Helvetica;shadow=1;" vertex="1" parent="1">
          <mxGeometry x="1120" y="770" width="160" height="60" as="geometry" />
        </mxCell>
        <mxCell id="vfckbRow3GQZ2LQeMpIB-15" value="&lt;font size=&quot;1&quot; style=&quot;&quot;&gt;&lt;b style=&quot;font-size: 18px;&quot;&gt;Store Flow Queue&lt;/b&gt;&lt;/font&gt;&lt;br&gt;&lt;font style=&quot;font-size: 14px;&quot;&gt;16 entries&lt;/font&gt;" style="rounded=0;whiteSpace=wrap;html=1;fillColor=#FFB570;strokeColor=default;fontFamily=Helvetica;shadow=1;" vertex="1" parent="1">
          <mxGeometry x="1330" y="770" width="160" height="60" as="geometry" />
        </mxCell>
        <mxCell id="vfckbRow3GQZ2LQeMpIB-16" value="&lt;font style=&quot;font-size: 14px;&quot;&gt;Data &lt;br&gt;Gen Unit&lt;/font&gt;" style="rounded=0;whiteSpace=wrap;html=1;fillColor=#f8cecc;strokeColor=default;fontFamily=Helvetica;shadow=1;" vertex="1" parent="1">
          <mxGeometry x="1330" y="660" width="70" height="40" as="geometry" />
        </mxCell>
        <mxCell id="vfckbRow3GQZ2LQeMpIB-17" value="&lt;font style=&quot;font-size: 14px;&quot;&gt;Address Gen Unit&lt;/font&gt;" style="rounded=0;whiteSpace=wrap;html=1;fillColor=#f8cecc;strokeColor=default;fontFamily=Helvetica;shadow=1;" vertex="1" parent="1">
          <mxGeometry x="1210" y="660" width="70" height="40" as="geometry" />
        </mxCell>
        <mxCell id="vfckbRow3GQZ2LQeMpIB-18" value="&lt;font style=&quot;font-size: 14px;&quot;&gt;Data &lt;br&gt;Gen Unit&lt;/font&gt;" style="rounded=0;whiteSpace=wrap;html=1;fillColor=#f8cecc;strokeColor=default;fontFamily=Helvetica;shadow=1;" vertex="1" parent="1">
          <mxGeometry x="1120" y="660" width="70" height="40" as="geometry" />
        </mxCell>
        <mxCell id="vfckbRow3GQZ2LQeMpIB-19" value="&lt;b&gt;&lt;font style=&quot;font-size: 18px;&quot;&gt;Load Units&lt;/font&gt;&lt;/b&gt;" style="text;html=1;strokeColor=none;fillColor=none;align=center;verticalAlign=middle;whiteSpace=wrap;rounded=0;shadow=0;" vertex="1" parent="1">
          <mxGeometry x="1150" y="890" width="100" height="40" as="geometry" />
        </mxCell>
        <mxCell id="vfckbRow3GQZ2LQeMpIB-20" value="&lt;b&gt;&lt;font style=&quot;font-size: 18px;&quot;&gt;Store Units&lt;/font&gt;&lt;/b&gt;" style="text;html=1;strokeColor=none;fillColor=none;align=center;verticalAlign=middle;whiteSpace=wrap;rounded=0;shadow=0;" vertex="1" parent="1">
          <mxGeometry x="1360" y="970" width="100" height="40" as="geometry" />
        </mxCell>
        <mxCell id="vfckbRow3GQZ2LQeMpIB-21" value="" style="endArrow=classic;html=1;rounded=0;fontSize=14;exitX=0.5;exitY=1;exitDx=0;exitDy=0;entryX=0.5;entryY=0;entryDx=0;entryDy=0;strokeWidth=2;strokeColor=default;" edge="1" parent="1" source="vfckbRow3GQZ2LQeMpIB-5" target="vfckbRow3GQZ2LQeMpIB-7">
          <mxGeometry width="50" height="50" relative="1" as="geometry">
            <mxPoint x="1239" y="680" as="sourcePoint" />
            <mxPoint x="1289" y="630" as="targetPoint" />
          </mxGeometry>
        </mxCell>
        <mxCell id="vfckbRow3GQZ2LQeMpIB-22" value="" style="endArrow=classic;html=1;rounded=0;fontSize=14;exitX=0.5;exitY=1;exitDx=0;exitDy=0;entryX=0.5;entryY=0;entryDx=0;entryDy=0;strokeWidth=2;" edge="1" parent="1" source="vfckbRow3GQZ2LQeMpIB-6" target="vfckbRow3GQZ2LQeMpIB-11">
          <mxGeometry width="50" height="50" relative="1" as="geometry">
            <mxPoint x="1278.205" y="550" as="sourcePoint" />
            <mxPoint x="1278.41" y="590" as="targetPoint" />
          </mxGeometry>
        </mxCell>
        <mxCell id="vfckbRow3GQZ2LQeMpIB-23" value="" style="endArrow=classic;html=1;rounded=0;fontSize=14;strokeWidth=2;strokeColor=default;" edge="1" parent="1">
          <mxGeometry width="50" height="50" relative="1" as="geometry">
            <mxPoint x="1200" y="830" as="sourcePoint" />
            <mxPoint x="1200" y="890" as="targetPoint" />
          </mxGeometry>
        </mxCell>
        <mxCell id="vfckbRow3GQZ2LQeMpIB-24" value="&lt;b&gt;3 flows / cycle&lt;/b&gt;" style="edgeLabel;resizable=0;html=1;align=center;verticalAlign=middle;shadow=0;strokeColor=default;fontSize=14;fillColor=none;gradientColor=#D5E8D4;gradientDirection=east;labelBackgroundColor=#FFF2CC;" connectable="0" vertex="1" parent="1">
          <mxGeometry x="1199.9960784313723" y="860" as="geometry" />
        </mxCell>
        <mxCell id="vfckbRow3GQZ2LQeMpIB-25" value="" style="endArrow=classic;html=1;rounded=0;fontSize=14;strokeWidth=2;exitX=0.5;exitY=1;exitDx=0;exitDy=0;entryX=0.5;entryY=0;entryDx=0;entryDy=0;" edge="1" parent="1" source="vfckbRow3GQZ2LQeMpIB-15" target="vfckbRow3GQZ2LQeMpIB-3">
          <mxGeometry width="50" height="50" relative="1" as="geometry">
            <mxPoint x="1410" y="840" as="sourcePoint" />
            <mxPoint x="1410" y="910" as="targetPoint" />
          </mxGeometry>
        </mxCell>
        <mxCell id="vfckbRow3GQZ2LQeMpIB-26" value="&lt;b&gt;2 flows / cycle&lt;/b&gt;" style="edgeLabel;resizable=0;html=1;align=center;verticalAlign=middle;shadow=0;strokeColor=default;fontSize=14;fillColor=none;gradientColor=#D5E8D4;gradientDirection=east;labelBackgroundColor=#FFF2CC;" connectable="0" vertex="1" parent="1">
          <mxGeometry x="1410" y="875" as="geometry" />
        </mxCell>
        <mxCell id="vfckbRow3GQZ2LQeMpIB-27" value="" style="endArrow=classic;html=1;rounded=0;fontSize=14;strokeWidth=2;exitX=0.5;exitY=1;exitDx=0;exitDy=0;strokeColor=default;" edge="1" parent="1" source="vfckbRow3GQZ2LQeMpIB-17">
          <mxGeometry width="50" height="50" relative="1" as="geometry">
            <mxPoint x="1244" y="700" as="sourcePoint" />
            <mxPoint x="1245" y="770" as="targetPoint" />
          </mxGeometry>
        </mxCell>
        <mxCell id="vfckbRow3GQZ2LQeMpIB-28" value="&lt;b&gt;4 flows / cycle&lt;/b&gt;" style="edgeLabel;resizable=0;html=1;align=center;verticalAlign=middle;shadow=0;strokeColor=default;fontSize=14;fillColor=none;gradientColor=#D5E8D4;gradientDirection=east;labelBackgroundColor=#FFF2CC;" connectable="0" vertex="1" parent="1">
          <mxGeometry x="1245" y="735" as="geometry" />
        </mxCell>
        <mxCell id="vfckbRow3GQZ2LQeMpIB-29" value="" style="endArrow=classic;html=1;rounded=0;fontSize=14;strokeWidth=2;entryX=0.5;entryY=0;entryDx=0;entryDy=0;" edge="1" parent="1" target="vfckbRow3GQZ2LQeMpIB-15">
          <mxGeometry width="50" height="50" relative="1" as="geometry">
            <mxPoint x="1364" y="700" as="sourcePoint" />
            <mxPoint x="1409" y="760" as="targetPoint" />
            <Array as="points">
              <mxPoint x="1364" y="720" />
              <mxPoint x="1410" y="720" />
            </Array>
          </mxGeometry>
        </mxCell>
        <mxCell id="vfckbRow3GQZ2LQeMpIB-30" value="&lt;b&gt;4 flows / cycle&lt;/b&gt;" style="edgeLabel;resizable=0;html=1;align=center;verticalAlign=middle;shadow=0;strokeColor=default;fontSize=14;fillColor=none;gradientColor=#D5E8D4;gradientDirection=east;fontColor=default;labelBackgroundColor=#FFF2CC;" connectable="0" vertex="1" parent="1">
          <mxGeometry x="1410" y="745" as="geometry">
            <mxPoint as="offset" />
          </mxGeometry>
        </mxCell>
        <mxCell id="vfckbRow3GQZ2LQeMpIB-31" value="" style="endArrow=classic;html=1;rounded=0;fontSize=14;exitX=0;exitY=0.5;exitDx=0;exitDy=0;strokeWidth=2;entryX=0.5;entryY=1;entryDx=0;entryDy=0;strokeColor=default;" edge="1" parent="1" source="vfckbRow3GQZ2LQeMpIB-4" target="vfckbRow3GQZ2LQeMpIB-18">
          <mxGeometry width="50" height="50" relative="1" as="geometry">
            <mxPoint x="1199" y="750" as="sourcePoint" />
            <mxPoint x="1154" y="700" as="targetPoint" />
            <Array as="points">
              <mxPoint x="990" y="935" />
              <mxPoint x="990" y="740" />
              <mxPoint x="1155" y="740" />
            </Array>
          </mxGeometry>
        </mxCell>
        <mxCell id="vfckbRow3GQZ2LQeMpIB-32" value="&lt;font style=&quot;&quot;&gt;&lt;font style=&quot;font-size: 18px;&quot;&gt;Store Buffer&lt;/font&gt;&lt;br&gt;&lt;font style=&quot;font-size: 14px;&quot;&gt;16 x 64B&lt;/font&gt;&lt;/font&gt;" style="rounded=0;whiteSpace=wrap;html=1;fillColor=#e1d5e7;strokeColor=default;fontFamily=Helvetica;shadow=1;" vertex="1" parent="1">
          <mxGeometry x="1550" y="770" width="160" height="60" as="geometry" />
        </mxCell>
        <mxCell id="vfckbRow3GQZ2LQeMpIB-33" value="" style="endArrow=classic;html=1;rounded=0;fontSize=14;exitX=1;exitY=0.5;exitDx=0;exitDy=0;entryX=0;entryY=0.5;entryDx=0;entryDy=0;strokeWidth=2;" edge="1" parent="1" source="vfckbRow3GQZ2LQeMpIB-15" target="vfckbRow3GQZ2LQeMpIB-32">
          <mxGeometry width="50" height="50" relative="1" as="geometry">
            <mxPoint x="1473" y="710" as="sourcePoint" />
            <mxPoint x="1529" y="590" as="targetPoint" />
          </mxGeometry>
        </mxCell>
        <mxCell id="vfckbRow3GQZ2LQeMpIB-34" value="&lt;font style=&quot;font-size: 18px;&quot;&gt;Vector RF&lt;/font&gt;" style="rounded=0;whiteSpace=wrap;html=1;fillColor=#ffe6cc;strokeColor=default;fontFamily=Helvetica;shadow=1;" vertex="1" parent="1">
          <mxGeometry x="940" y="560" width="100" height="60" as="geometry" />
        </mxCell>
        <mxCell id="vfckbRow3GQZ2LQeMpIB-35" value="" style="endArrow=classic;html=1;rounded=0;fontSize=14;exitX=0;exitY=0.5;exitDx=0;exitDy=0;entryX=1;entryY=0.5;entryDx=0;entryDy=0;strokeWidth=2;strokeColor=default;" edge="1" parent="1" source="vfckbRow3GQZ2LQeMpIB-7" target="vfckbRow3GQZ2LQeMpIB-34">
          <mxGeometry width="50" height="50" relative="1" as="geometry">
            <mxPoint x="1489" y="610" as="sourcePoint" />
            <mxPoint x="1549" y="610" as="targetPoint" />
          </mxGeometry>
        </mxCell>
        <mxCell id="vfckbRow3GQZ2LQeMpIB-36" value="&lt;font style=&quot;font-size: 14px;&quot;&gt;&lt;b&gt;writeback&lt;/b&gt;&lt;/font&gt;" style="text;html=1;strokeColor=none;fillColor=none;align=center;verticalAlign=middle;whiteSpace=wrap;rounded=0;shadow=0;fontSize=12;" vertex="1" parent="1">
          <mxGeometry x="1040" y="560" width="79.41" height="30" as="geometry" />
        </mxCell>
        <mxCell id="vfckbRow3GQZ2LQeMpIB-37" value="" style="endArrow=classic;html=1;rounded=0;fontSize=14;strokeWidth=2;strokeColor=default;" edge="1" parent="1">
          <mxGeometry width="50" height="50" relative="1" as="geometry">
            <mxPoint x="1245" y="620.0000000000001" as="sourcePoint" />
            <mxPoint x="1245" y="660" as="targetPoint" />
          </mxGeometry>
        </mxCell>
        <mxCell id="vfckbRow3GQZ2LQeMpIB-38" value="" style="endArrow=classic;html=1;rounded=0;fontSize=14;exitX=0.5;exitY=1;exitDx=0;exitDy=0;entryX=0.5;entryY=0;entryDx=0;entryDy=0;strokeWidth=2;" edge="1" parent="1" source="vfckbRow3GQZ2LQeMpIB-32" target="vfckbRow3GQZ2LQeMpIB-39">
          <mxGeometry width="50" height="50" relative="1" as="geometry">
            <mxPoint x="1489" y="600" as="sourcePoint" />
            <mxPoint x="1599" y="680" as="targetPoint" />
          </mxGeometry>
        </mxCell>
        <mxCell id="vfckbRow3GQZ2LQeMpIB-39" value="&lt;font style=&quot;&quot;&gt;&lt;font style=&quot;font-size: 18px;&quot;&gt;Data Cache&lt;/font&gt;&lt;br&gt;&lt;font style=&quot;font-size: 14px;&quot;&gt;128 KB,&amp;nbsp;&lt;/font&gt;&lt;font style=&quot;font-size: 14px;&quot;&gt;8 way, 8 bank&lt;br&gt;&lt;/font&gt;&lt;/font&gt;" style="rounded=0;whiteSpace=wrap;html=1;fillColor=#e1d5e7;strokeColor=default;fontFamily=Helvetica;shadow=1;" vertex="1" parent="1">
          <mxGeometry x="1550" y="890" width="160" height="120" as="geometry" />
        </mxCell>
        <mxCell id="vfckbRow3GQZ2LQeMpIB-40" value="" style="endArrow=classic;html=1;rounded=0;fontSize=14;strokeWidth=2;" edge="1" parent="1">
          <mxGeometry width="50" height="50" relative="1" as="geometry">
            <mxPoint x="1365" y="620.0000000000001" as="sourcePoint" />
            <mxPoint x="1365" y="660" as="targetPoint" />
          </mxGeometry>
        </mxCell>
        <mxCell id="vfckbRow3GQZ2LQeMpIB-41" value="" style="endArrow=classic;html=1;rounded=0;fontSize=14;strokeWidth=2;" edge="1" parent="1">
          <mxGeometry width="50" height="50" relative="1" as="geometry">
            <mxPoint x="1455" y="620.0000000000001" as="sourcePoint" />
            <mxPoint x="1455" y="660" as="targetPoint" />
          </mxGeometry>
        </mxCell>
        <mxCell id="vfckbRow3GQZ2LQeMpIB-42" value="" style="endArrow=classic;html=1;rounded=0;fontSize=16;exitX=0.5;exitY=0;exitDx=0;exitDy=0;strokeWidth=2;strokeColor=default;" edge="1" parent="1" source="vfckbRow3GQZ2LQeMpIB-18">
          <mxGeometry width="50" height="50" relative="1" as="geometry">
            <mxPoint x="1179" y="720" as="sourcePoint" />
            <mxPoint x="1155" y="620.0000000000001" as="targetPoint" />
          </mxGeometry>
        </mxCell>
        <mxCell id="vfckbRow3GQZ2LQeMpIB-43" value="&lt;font style=&quot;font-size: 14px;&quot;&gt;&lt;b&gt;load data&lt;/b&gt;&lt;/font&gt;" style="text;html=1;strokeColor=none;fillColor=none;align=center;verticalAlign=middle;whiteSpace=wrap;rounded=0;shadow=0;fontSize=12;" vertex="1" parent="1">
          <mxGeometry x="990" y="720" width="165" height="20" as="geometry" />
        </mxCell>
      </root>
    </mxGraphModel>
  </diagram>
</mxfile>
